PathFileType	4	(X/Y/Z)	./resultDataOpenSim/trcMotMarkerGrf/sub09/qtm-14-07.trc
DataRate	CameraRate	NumFrames	NumMarkers	Units	OrigDataRate	OrigDataStartFrame	OrigNumFrames
250.000000	250.000000	13	24	m	250.000000	425	485
Frame#	Time	L.Toe.Tip			R.Toe.Tip			L.Ankle.Lat			R.Ankle.Lat			L.Ankle.Med			R.Ankle.Med			L.Heel			R.Heel			L.Knee.Lat			R.Knee.Lat			L.Knee.Med			R.Knee.Med			L.Thigh.Upper			R.Thigh.Upper			L.ASIS			R.ASIS			V.Sacral			L.Acromium			R.Acromium			C7			L.Elbow			R.Elbow			L.Wrist.Lat			R.Wrist.Lat
		X1	Y1	Z1	X2	Y2	Z2	X3	Y3	Z3	X4	Y4	Z4	X5	Y5	Z5	X6	Y6	Z6	X7	Y7	Z7	X8	Y8	Z8	X9	Y9	Z9	X10	Y10	Z10	X11	Y11	Z11	X12	Y12	Z12	X13	Y13	Z13	X14	Y14	Z14	X15	Y15	Z15	X16	Y16	Z16	X17	Y17	Z17	X18	Y18	Z18	X19	Y19	Z19	X20	Y20	Z20	X21	Y21	Z21	X22	Y22	Z22	X23	Y23	Z23	X24	Y24	Z24

425	1.696	1.8810886	0.12859667	-0.021372666	1.1768454	0.041046585	0.057892556	1.7351263	0.089888457	-0.056164167	1.0410613	0.088117665	0.10075858	1.7510664	0.11817744	0.037267952	1.0615382	0.12896058	0.01325132	1.6907516	0.024682595	-0.0058288608	0.96722346	0.090853841	0.051587596	1.5954701	0.48527986	-0.09642644	1.2832624	0.48219829	0.17428152	1.5961238	0.47974184	0.030196367	1.2697265	0.47825836	0.048969616	1.4087643	0.85870234	-0.13909086	1.3462356	0.87955055	0.22844033	1.4781851	0.95213641	-0.073073603	1.4648868	0.96057404	0.16930666	1.3004481	1.0023905	0.028317037	1.398694	1.4067453	-0.13602855	1.3904398	1.4253173	0.1969705	1.3213553	1.4580007	0.029326455	1.2665228	1.0660771	-0.17056728	1.3016646	1.0604742	0.28877198	1.3436777	0.82802062	-0.24217828	1.5382397	0.91552882	0.25030058
426	1.7	1.883489	0.12437207	-0.019413162	1.1771143	0.041150885	0.057947128	1.7372772	0.087293166	-0.055585275	1.0426335	0.089874173	0.10144237	1.7527834	0.11528406	0.037965378	1.0630474	0.13045565	0.013788306	1.6918102	0.022626261	-0.0058916414	0.96831505	0.09350722	0.052156567	1.6022612	0.48444489	-0.096114158	1.2891227	0.48120814	0.17440441	1.6029151	0.47946086	0.030308205	1.2751965	0.47738582	0.049120366	1.4147157	0.85818947	-0.13972518	1.3520655	0.87851967	0.2277458	1.4847102	0.95156286	-0.073471929	1.4710704	0.95951463	0.16900985	1.3066213	1.0013045	0.028023045	1.4039154	1.4058903	-0.13646989	1.3958177	1.4244008	0.19654221	1.3265875	1.4569335	0.0289421	1.2719105	1.0652328	-0.17079977	1.3075103	1.0596422	0.28826404	1.3484864	0.82712077	-0.24265899	1.5433396	0.91383984	0.25048293
427	1.704	1.8857464	0.11979176	-0.017269164	1.1773712	0.041256893	0.057936334	1.7392923	0.084668552	-0.054969782	1.0452144	0.091841939	0.10245246	1.7542317	0.11235318	0.038733415	1.0646818	0.13201336	0.014335021	1.6925769	0.020697375	-0.0060293491	0.96950964	0.096273693	0.052701639	1.6087408	0.48350228	-0.095828218	1.2948917	0.4802023	0.17462113	1.6095762	0.4790871	0.030337555	1.2809286	0.47673833	0.049346387	1.4208595	0.85771593	-0.14028737	1.3588582	0.87730465	0.22743568	1.4913412	0.95106016	-0.073838557	1.4773093	0.95846475	0.16872454	1.3128985	1.0002043	0.027764704	1.409163	1.4050495	-0.13692124	1.4012089	1.4234953	0.19609116	1.3318184	1.4558564	0.028546766	1.2773002	1.0643913	-0.17103961	1.3134153	1.0588577	0.28773397	1.3533836	0.82624038	-0.24312185	1.5483865	0.91210444	0.25068914
428	1.708	1.8880009	0.11480951	-0.015070376	1.1776161	0.041347405	0.05795124	1.7412666	0.082130449	-0.054230681	1.0486471	0.093993036	0.10373414	1.7556261	0.10956434	0.039646189	1.0664494	0.13361607	0.014896171	1.693143	0.019141622	-0.0060449294	0.97081738	0.099155672	0.053224389	1.6149336	0.48245105	-0.095545261	1.3006368	0.47920756	0.17492034	1.6161044	0.47859379	0.030287194	1.2869886	0.47616312	0.049685285	1.4272368	0.85727317	-0.14077364	1.3660693	0.87597845	0.22729209	1.4980571	0.95060999	-0.07415789	1.4834875	0.95744717	0.16846384	1.3192872	0.99910755	0.027530164	1.414434	1.4042169	-0.13738658	1.4066045	1.422607	0.19561843	1.3370464	1.4547771	0.028131202	1.2826832	1.0635567	-0.17128209	1.3193553	1.0581188	0.28719014	1.3583759	0.825375	-0.24357275	1.5533786	0.91031738	0.25091952
429	1.712	1.890599	0.10933247	-0.0129072	1.1778783	0.041427952	0.058060733	1.7433498	0.079904382	-0.053324826	1.0521537	0.096232292	0.10501548	1.7573344	0.10716977	0.040717136	1.0683481	0.13525656	0.015478312	1.693689	0.018278722	-0.0057487243	0.97224514	0.10215667	0.053733563	1.6208525	0.48131679	-0.095265765	1.3064372	0.47822849	0.17527393	1.6224765	0.47794995	0.030174927	1.2930066	0.47543492	0.049865507	1.4338727	0.85685912	-0.14118947	1.3728298	0.87467458	0.22697427	1.504812	0.95020488	-0.074422043	1.4893919	0.95649429	0.16823942	1.3257442	0.99805566	0.027289392	1.419721	1.4033929	-0.13786079	1.4120141	1.4217459	0.19513475	1.3422633	1.4537179	0.027689915	1.2880676	1.0627249	-0.17152471	1.3252996	1.0573983	0.2866437	1.3634613	0.82452315	-0.24401572	1.5583354	0.90847925	0.25117319
430	1.716	1.8938803	0.10339281	-0.010821532	1.1781829	0.041505484	0.05828475	1.7457348	0.078244286	-0.052324841	1.0553403	0.098509918	0.10616847	1.7597321	0.1053251	0.041850239	1.0703612	0.13694267	0.016088964	1.6944381	0.018343047	-0.0051386065	0.97379222	0.10527779	0.054251468	1.6264926	0.48014983	-0.095026106	1.3123441	0.47725304	0.17564706	1.6286673	0.47713722	0.030042219	1.2987934	0.47443616	0.049781651	1.4407756	0.85647294	-0.14156438	1.3787298	0.8734663	0.22630663	1.5115556	0.94985854	-0.074630331	1.4948861	0.95562412	0.16805378	1.3321837	0.9970967	0.027009923	1.4250199	1.4025834	-0.13833788	1.4174308	1.4209143	0.19465301	1.3474698	1.4527142	0.027227619	1.2934718	1.0618892	-0.17176507	1.3312354	1.0566529	0.28610298	1.368636	0.8236847	-0.24445015	1.563268	0.90659455	0.25145057
431	1.72	1.8979176	0.097280089	-0.0088303753	1.178532	0.041584453	0.058596232	1.7485802	0.077255863	-0.05140416	1.0585427	0.10087188	0.10732191	1.7629576	0.10396872	0.042879314	1.072475	0.13868237	0.016735277	1.6955739	0.019291575	-0.0044530476	0.97545856	0.10852098	0.054813853	1.6319017	0.47902953	-0.094875343	1.318387	0.47627429	0.17600611	1.6346564	0.47618545	0.02994795	1.3047051	0.4731572	0.049697789	1.4479273	0.85611725	-0.14193977	1.3846183	0.8722369	0.22553244	1.5182479	0.94959899	-0.074787378	1.5001631	0.95480256	0.1678863	1.3385389	0.99626299	0.026671324	1.4303289	1.4017931	-0.13882281	1.4228331	1.4201136	0.19418002	1.3526778	1.4518093	0.026751058	1.2989072	1.0610463	-0.17200749	1.3371671	1.0558691	0.28556429	1.3739018	0.82285812	-0.24487368	1.5681578	0.90467343	0.25175204
432	1.724	1.9024202	0.091456958	-0.0069924439	1.1789192	0.041675685	0.058937684	1.7519069	0.07679148	-0.050725399	1.0618374	0.10332586	0.10852409	1.766786	0.1028974	0.043665918	1.0746953	0.14047787	0.017426346	1.6971506	0.020791151	-0.0040160388	0.97725693	0.11189361	0.055457432	1.6372258	0.47808158	-0.094865066	1.3245716	0.4752903	0.17632397	1.6404269	0.47520126	0.029941144	1.3113164	0.47161476	0.04997923	1.4552935	0.85581234	-0.14233361	1.3918781	0.87079998	0.22494859	1.5248649	0.94944826	-0.074907644	1.5056543	0.9539614	0.16770365	1.3448105	0.99556589	0.026280962	1.4356434	1.401024	-0.1393291	1.42821	1.4193541	0.19371992	1.3579108	1.4510455	0.02626421	1.3043741	1.060199	-0.17226196	1.3430991	1.0550784	0.28500828	1.3792608	0.82204378	-0.24528593	1.5729817	0.90273099	0.25208013
433	1.728	1.9068921	0.08626376	-0.0054224447	1.1793438	0.04179209	0.059247663	1.7555665	0.076549173	-0.050350089	1.0648104	0.10580325	0.10965131	1.7707583	0.10194104	0.044159379	1.0770346	0.14233822	0.018172736	1.6990482	0.022418546	-0.0040039549	0.97921031	0.11540426	0.056203821	1.6426898	0.47747806	-0.095060385	1.3308896	0.47429871	0.1765903	1.6459872	0.47436327	0.030026469	1.3187886	0.46989682	0.05071284	1.4628479	0.85560615	-0.14273839	1.4009305	0.86912998	0.22443609	1.5313957	0.94941331	-0.075017514	1.5115982	0.95306925	0.1674929	1.3510396	0.99499495	0.025868523	1.4409578	1.4002818	-0.13986417	1.4335615	1.4186534	0.19327931	1.3631966	1.4504451	0.025763597	1.3098719	1.0593556	-0.1725312	1.3490247	1.0543206	0.28441291	1.3847102	0.82124594	-0.24568689	1.5777464	0.90077668	0.252432
434	1.732	1.910919	0.081685203	-0.0042088871	1.179807	0.041934556	0.059494195	1.7593077	0.076280837	-0.050244073	1.0670796	0.10823187	0.11054928	1.7744575	0.10104709	0.04437922	1.0795055	0.14427816	0.018977281	1.7010229	0.02388596	-0.0043439611	0.98134329	0.1190617	0.057047469	1.6485258	0.47738367	-0.095494698	1.337349	0.47330746	0.17681647	1.6513819	0.47387038	0.030153265	1.3265817	0.46820384	0.051561221	1.4705801	0.85556625	-0.14315009	1.4107691	0.86740284	0.22370208	1.5378429	0.94949751	-0.075141199	1.5178846	0.95215932	0.1672675	1.3572425	0.99452281	0.025455271	1.4462697	1.399579	-0.14042006	1.4388859	1.4180282	0.19286467	1.3685409	1.4499904	0.02524541	1.3154021	1.0585272	-0.17281144	1.3549151	1.0536142	0.28376474	1.3902477	0.82047207	-0.24607346	1.5824809	0.89880687	0.25279447
435	1.736	1.9143192	0.077405866	-0.0033375206	1.1803103	0.042088834	0.05969482	1.7628622	0.075903146	-0.050337323	1.0682935	0.11053062	0.11102568	1.7776919	0.10023244	0.0443646	1.0821282	0.14630869	0.019827536	1.7028201	0.025122663	-0.0048197835	0.98368347	0.12287835	0.057943591	1.6548806	0.47787268	-0.096075014	1.3439767	0.47233798	0.17702256	1.6566781	0.47386633	0.030239151	1.3340077	0.46673046	0.052104142	1.4784569	0.85576046	-0.14357339	1.4198203	0.86584471	0.22281144	1.5442255	0.94971463	-0.075279948	1.5242845	0.95129275	0.1670419	1.3633986	0.99413426	0.02505308	1.4515803	1.3989317	-0.14097907	1.4441766	1.4174937	0.19247662	1.3739239	1.4496338	0.024722073	1.3209656	1.0577301	-0.17310588	1.3607107	1.0529561	0.28305494	1.3958752	0.81973395	-0.24643945	1.587197	0.89681415	0.25316155
436	1.74	1.9170862	0.073060835	-0.0027218132	1.180863	0.042241722	0.059888634	1.7660033	0.075451603	-0.050573978	1.0684191	0.11267287	0.11097379	1.7804645	0.099496446	0.044151318	1.0849271	0.14844062	0.020702878	1.7042747	0.026195981	-0.005251067	0.98627038	0.12686839	0.058804303	1.6617648	0.47888778	-0.096590128	1.3507991	0.47141001	0.1772275	1.6619537	0.47438747	0.030209115	1.3409932	0.46551354	0.052279695	1.486366	0.85623698	-0.1440002	1.4271295	0.86457975	0.22212424	1.550572	0.9500853	-0.075415337	1.5306483	0.95051685	0.16681617	1.3694896	0.99383915	0.024681597	1.4568897	1.3983545	-0.14152517	1.449425	1.417066	0.19210734	1.379316	1.4493319	0.024204299	1.3265622	1.0569898	-0.1734289	1.3663248	1.0523283	0.28226493	1.4015967	0.81904752	-0.24677674	1.591873	0.89479986	0.25354111
437	1.744	1.9192868	0.068437571	-0.0022970243	1.1814822	0.042399956	0.060063236	1.7686014	0.074980569	-0.050927347	1.0686978	0.11488976	0.11072779	1.7828604	0.098792268	0.043777338	1.0879319	0.15068077	0.021587385	1.7053586	0.027184798	-0.0055808791	0.98915114	0.13104025	0.059531687	1.6690866	0.48026825	-0.096859616	1.3578356	0.47053172	0.17745041	1.667288	0.47535864	0.030026602	1.3480195	0.46444032	0.05235351	1.4941426	0.85700775	-0.14441494	1.4329017	0.86357503	0.22180029	1.5569028	0.95062296	-0.075538692	1.5369309	0.94984922	0.16658018	1.3755214	0.99363765	0.024351467	1.4621964	1.3978575	-0.14204997	1.4546285	1.4167575	0.19174506	1.3846814	1.4490601	0.023678891	1.3321916	1.0563306	-0.17379136	1.3716794	1.0517194	0.28136937	1.4074135	0.81842947	-0.24707758	1.5964763	0.89277412	0.25393784
